<?xml version="1.0" encoding="UTF-8"?>
<svg width="194px" height="125px" viewBox="0 0 194 125" version="1.1" xmlns="http://www.w3.org/2000/svg" xmlns:xlink="http://www.w3.org/1999/xlink">
    <!-- Generator: Sketch 53.2 (72643) - https://sketchapp.com -->
    <title>login-bg-2</title>
    <desc>Created with Sketch.</desc>
    <defs>
        <linearGradient x1="50%" y1="-2.48949813e-15%" x2="50%" y2="100%" id="linearGradient-1">
            <stop stop-color="#FFF3CE" offset="0%"></stop>
            <stop stop-color="#FFBE00" offset="100%"></stop>
        </linearGradient>
        <path d="M0.285714286,2 L3.71428571,2" id="path-2"></path>
        <filter x="-17.9%" y="-8.3%" width="135.7%" height="175.0%" filterUnits="objectBoundingBox" id="filter-3">
            <feMorphology radius="0.5" operator="dilate" in="SourceAlpha" result="shadowSpreadOuter1"></feMorphology>
            <feOffset dx="0" dy="1" in="shadowSpreadOuter1" result="shadowOffsetOuter1"></feOffset>
            <feMorphology radius="1" operator="erode" in="SourceAlpha" result="shadowInner"></feMorphology>
            <feOffset dx="0" dy="1" in="shadowInner" result="shadowInner"></feOffset>
            <feComposite in="shadowOffsetOuter1" in2="shadowInner" operator="out" result="shadowOffsetOuter1"></feComposite>
            <feColorMatrix values="0 0 0 0 1   0 0 0 0 1   0 0 0 0 1  0 0 0 1 0" type="matrix" in="shadowOffsetOuter1"></feColorMatrix>
        </filter>
        <path d="M2,0.285714286 L2,3.71428571" id="path-4"></path>
        <filter x="-175.0%" y="-29.2%" width="350.0%" height="187.5%" filterUnits="objectBoundingBox" id="filter-5">
            <feMorphology radius="0.5" operator="dilate" in="SourceAlpha" result="shadowSpreadOuter1"></feMorphology>
            <feOffset dx="0" dy="1" in="shadowSpreadOuter1" result="shadowOffsetOuter1"></feOffset>
            <feMorphology radius="1" operator="erode" in="SourceAlpha" result="shadowInner"></feMorphology>
            <feOffset dx="0" dy="1" in="shadowInner" result="shadowInner"></feOffset>
            <feComposite in="shadowOffsetOuter1" in2="shadowInner" operator="out" result="shadowOffsetOuter1"></feComposite>
            <feColorMatrix values="0 0 0 0 1   0 0 0 0 1   0 0 0 0 1  0 0 0 1 0" type="matrix" in="shadowOffsetOuter1"></feColorMatrix>
        </filter>
    </defs>
    <g id="Welcome" stroke="none" stroke-width="1" fill="none" fill-rule="evenodd">
        <g id="Login-page--3" transform="translate(-91.000000, -128.000000)" fill-rule="nonzero">
            <g id="login-bg-2" transform="translate(90.000000, 124.000000)">
                <path d="M83.9915558,120.313343 C122.401038,120.313343 194.814538,80.6640257 194.814538,42.2545432 C194.814538,3.84506068 143.039269,28.8151434 104.629787,28.8151434 C66.2203041,28.8151434 7.52860816,3.84506068 7.52860816,42.2545432 C7.52860816,80.6640257 45.5820734,120.313343 83.9915558,120.313343 Z" id="Oval" fill-opacity="0.1" fill="#FFBE00"></path>
                <path d="M114.881507,136.962042 C142.222037,128.926904 123.644395,94.1570455 121.624774,73.1608991 C119.605154,52.1647527 159.025964,18 125.788226,18 C92.5504881,18 49.8487955,24.4974885 40.0354667,67.5270176 C30.222138,110.556547 87.5409767,144.99718 114.881507,136.962042 Z" id="Oval" fill-opacity="0.1" fill="#FFBE00" transform="translate(89.041754, 78.066239) scale(-1, 1) rotate(-31.000000) translate(-89.041754, -78.066239) "></path>
                <g id="shield" transform="translate(76.611621, 78.786200) rotate(-37.000000) translate(-76.611621, -78.786200) translate(42.111621, 38.286200)">
                    <path d="M66.6029906,22.6677995 L66.6018673,22.6385593 C66.566571,21.8575191 66.5426404,21.0268697 66.5281566,20.0918655 C66.4784759,16.7301956 63.802489,13.9408015 60.4474761,13.7529346 C50.7938513,13.2132174 43.232276,10.0202296 36.8257639,3.7642042 L36.802062,3.74106471 C35.5877003,2.6255847 33.7774445,2.6255847 32.5907921,3.7147657 L32.5552369,3.74853386 C26.1326521,10.0200763 18.5711956,13.2131706 8.91720892,13.7535497 C5.56254935,13.9409578 2.88629287,16.7304847 2.83661022,20.0927555 C2.82301509,21.0040503 2.79884117,21.8376454 2.76430444,22.598792 L2.76092523,22.7309789 C2.47604157,37.699609 3.04733417,45.2544106 6.13594517,53.6497184 C8.17746411,59.1994496 11.2609502,64.0109934 15.3043363,67.9643974 C19.9336503,72.4903057 26.0324132,76.1042603 33.4449436,78.6935463 C33.6072045,78.7502432 33.7778663,78.7968174 33.9506395,78.8315162 C34.1945359,78.880225 34.4386349,78.9044806 34.6823854,78.9044806 C34.9262875,78.9044806 35.1707782,78.8801959 35.4120266,78.8319377 C35.5864964,78.7968994 35.7585655,78.7498581 35.9212811,78.6928828 C43.3253147,76.0987683 49.4176661,72.4828553 54.0427991,67.9576374 C58.0847592,64.0027715 61.1684857,59.1896847 63.2119591,53.6382108 C66.3111041,45.2206109 66.886062,37.6530266 66.6029906,22.6677995 Z" id="Shape" stroke="#FFBE00" stroke-width="4" fill="url(#linearGradient-1)"></path>
                    <path d="M32.9801476,22.0006189 C21.9518298,22.0006189 12.9801476,30.7484722 12.9801476,41.5003203 C12.9801476,52.2527657 21.9518298,61.0006189 32.9801476,61.0006189 C44.007853,61.0006189 52.9801476,52.2527657 52.9801476,41.5003203 C52.9801476,30.7484722 44.007853,22.0006189 32.9801476,22.0006189 Z M32.9801476,56.4088018 C24.5484929,56.4088018 17.6891633,49.7210578 17.6891633,41.5003203 C17.6891633,33.279583 24.5484929,26.591839 32.9801476,26.591839 C41.4111899,26.591839 48.2705196,33.279583 48.2705196,41.5003203 C48.2705196,49.7210578 41.4111899,56.4088018 32.9801476,56.4088018 Z" id="Shape" fill="#FFFFFF"></path>
                    <path d="M39.4279983,35.2067441 L30.0681994,44.6954526 L27.527753,42.1200175 C26.6011503,41.1806528 25.0989679,41.1806528 24.172365,42.1200175 C23.2463791,43.0593821 23.2463791,44.5822536 24.172365,45.5209927 L28.3908138,49.797541 C28.8541153,50.2672233 29.4611573,50.5017517 30.0681994,50.5017517 C30.6752415,50.5017517 31.2822835,50.2672233 31.745585,49.797541 L42.7833861,38.6077194 C43.7093721,37.6683547 43.7093721,36.1454833 42.7833861,35.2067441 C41.8567834,34.2667542 40.354601,34.2667542 39.4279983,35.2067441 Z" id="Path" fill="#FFFFFF"></path>
                </g>
                <g id="shield" transform="translate(71.000000, 38.000000)">
                    <path d="M63.9238269,20.949775 L63.9227983,20.9231938 C63.8884965,20.1704854 63.8652437,19.3700878 63.8511714,18.4692145 C63.803593,15.2766311 61.2343793,12.6208527 58.0057917,12.4415716 C48.625162,11.9214876 41.2745566,8.84345082 35.0466295,2.81249027 L35.0245438,2.79107203 C33.8665947,1.73627493 32.1354696,1.73627493 31.0053403,2.76490572 L30.9713681,2.79689305 C24.7273043,8.84330265 17.3768154,11.9214417 7.99583098,12.4421638 C4.76758495,12.6210069 2.19811284,15.2769113 2.15053236,18.4700839 C2.1373237,19.3480951 2.11383412,20.1513421 2.08033399,20.8830936 L2.07706694,21.0097514 C1.80077342,35.406053 2.35465057,42.6695143 5.34733643,50.7362952 C7.3246481,56.0666901 10.3111399,60.6880468 14.2278757,64.4857059 C18.7142668,68.8353323 24.62668,72.3096652 31.8143048,74.7994664 C31.9697592,74.8533323 32.1333762,74.8976118 32.2990097,74.9305995 C32.5329445,74.9769295 32.7670671,75 33.0008539,75 C33.234786,75 33.4692843,74.9769019 33.7006088,74.9310144 C33.867924,74.897693 34.0328969,74.8529676 34.1887761,74.7988408 C41.368157,72.3043986 47.2743555,68.8281823 51.7566961,64.479218 C55.6720606,60.6801448 58.6587949,56.0572912 60.6380091,50.7251968 C63.6408571,42.6371168 64.1983249,35.36149 63.9238269,20.949775 Z" id="Shape" stroke="#FFBE00" stroke-width="4" fill="#FFFFFF"></path>
                    <path d="M32.5,20 C21.7473902,20 13,28.5235494 13,38.9997091 C13,49.4764508 21.7473902,58 32.5,58 C43.2520128,58 52,49.4764508 52,38.9997091 C52,28.5235494 43.2520128,20 32.5,20 Z M32.5,53.5259218 C24.2791366,53.5259218 17.5912903,47.0096585 17.5912903,38.9997091 C17.5912903,30.9897599 24.2791366,24.4734965 32.5,24.4734965 C40.7202663,24.4734965 47.4081126,30.9897599 47.4081126,38.9997091 C47.4081126,47.0096585 40.7202663,53.5259218 32.5,53.5259218 Z" id="Shape" fill="#FFBE00"></path>
                    <path d="M38.1526165,32.6609304 L29.2608076,41.5565946 L26.8473835,39.1421243 C25.9671109,38.2614699 24.5400377,38.2614699 23.6597649,39.1421243 C22.7800784,40.0227785 22.7800784,41.4504705 23.6597649,42.3305385 L27.6672913,46.3398025 C28.1074277,46.7801297 28.6841177,47 29.2608076,47 C29.8374976,47 30.4141875,46.7801297 30.8543239,46.3398025 L41.340235,35.8493448 C42.2199217,34.9686904 42.2199217,33.5409984 41.340235,32.6609304 C40.4599624,31.7796899 39.0328891,31.7796899 38.1526165,32.6609304 Z" id="Path" fill="#FFBE00"></path>
                </g>
                <g id="plus" transform="translate(149.171573, 32.028550)" stroke="#FFCC00" stroke-linecap="round">
                    <path d="M0.5,3.5 L6.5,3.5" id="Line"></path>
                    <path d="M3.5,0.5 L3.5,6.5" id="Line"></path>
                </g>
                <g id="plus" transform="translate(44.171573, 25.028550)" stroke="#FFCC00" stroke-linecap="round">
                    <path d="M0.285714286,2 L3.71428571,2" id="Line"></path>
                    <path d="M2,0.285714286 L2,3.71428571" id="Line"></path>
                </g>
                <g id="plus" transform="translate(21.171573, 116.028550) rotate(-45.000000) translate(-21.171573, -116.028550) translate(19.171573, 114.028550)" stroke="#FFCC00" stroke-linecap="round">
                    <path d="M0.285714286,2 L3.71428571,2" id="Line"></path>
                    <path d="M2,0.285714286 L2,3.71428571" id="Line"></path>
                </g>
                <g id="plus" transform="translate(100.000000, 118.856977) rotate(-45.000000) translate(-100.000000, -118.856977) translate(98.000000, 116.856977)" stroke="#EFB200" stroke-linecap="round">
                    <path d="M0.285714286,2 L3.71428571,2" id="Line"></path>
                    <path d="M2,0.285714286 L2,3.71428571" id="Line"></path>
                </g>
                <g id="plus" transform="translate(3.000000, 57.856977) rotate(-45.000000) translate(-3.000000, -57.856977) translate(1.000000, 55.856977)" stroke-linecap="round">
                    <g id="Line">
                        <use fill="black" fill-opacity="1" filter="url(#filter-3)" xlink:href="#path-2"></use>
                        <use stroke="#FFE084" stroke-width="1" xlink:href="#path-2"></use>
                    </g>
                    <g id="Line">
                        <use fill="black" fill-opacity="1" filter="url(#filter-5)" xlink:href="#path-4"></use>
                        <use stroke="#FFE084" stroke-width="1" xlink:href="#path-4"></use>
                    </g>
                </g>
                <circle id="Oval-4" fill="#FFBE00" cx="24.1715729" cy="33.0285503" r="1"></circle>
                <polygon id="Star" fill="#FFD763" points="174.171573 70.0285503 172.996002 70.6465843 173.220516 69.3375673 172.26946 68.4105163 173.583788 68.2195333 174.171573 67.0285503 174.759358 68.2195333 176.073686 68.4105163 175.122629 69.3375673 175.347143 70.6465843"></polygon>
                <polygon id="Star" fill="#FFD763" points="103.171573 40.0285503 101.996002 40.6465843 102.220516 39.3375673 101.26946 38.4105163 102.583788 38.2195333 103.171573 37.0285503 103.759358 38.2195333 105.073686 38.4105163 104.122629 39.3375673 104.347143 40.6465843"></polygon>
            </g>
        </g>
    </g>
</svg>