<?xml version="1.0" encoding="UTF-8"?>
<svg width="80px" height="80px" viewBox="0 0 80 80" version="1.1" xmlns="http://www.w3.org/2000/svg" xmlns:xlink="http://www.w3.org/1999/xlink">
    <!-- Generator: Sketch 53.2 (72643) - https://sketchapp.com -->
    <title>logo-main</title>
    <desc>Created with Sketch.</desc>
    <defs>
        <rect id="path-1" x="0" y="0" width="64" height="64" rx="8"></rect>
    </defs>
    <g id="Welcome" stroke="none" stroke-width="1" fill="none" fill-rule="evenodd">
        <g id="Login-page--3" transform="translate(-149.000000, -31.000000)">
            <g id="logo-main" transform="translate(157.000000, 39.000000)">
                <mask id="mask-2" fill="white">
                    <use xlink:href="#path-1"></use>
                </mask>
                <g id="Mask-2">
                    <use fill="#FFBE00" fill-rule="evenodd" xlink:href="#path-1"></use>
                    <rect stroke-opacity="0.207304414" stroke="#FFCC00" stroke-width="8" x="-4" y="-4" width="72" height="72" rx="8"></rect>
                    <use stroke="#FFFFFF" stroke-width="3" xlink:href="#path-1"></use>
                </g>
                <g id="Group" mask="url(#mask-2)">
                    <g transform="translate(-5.000000, 1.000000)">
                        <g id="Group-11" stroke="none" stroke-width="1" fill-rule="evenodd" transform="translate(7.000000, 0.000000)">
                            <path d="M4.07985234,18.5775261 C4.07985234,13.0312457 15.4645777,8.53646459 29.514274,8.53646459 C43.5631758,8.53646459 54.9507055,13.0312457 54.9507055,18.5775261 C54.9507055,24.1238065 43.5631758,28.6184318 29.514274,28.6184318 C15.4645777,28.6184318 4.07985234,24.1238065 4.07985234,18.5775261" id="Fill-3" fill="#005D7B"></path>
                            <polygon id="Fill-7" fill="#005D7B" points="14.761571 46.3382401 13.0173708 53.3315551 9.83920737 53.3315551 12.3552216 43.059666 16.8391281 43.059666 17.3608271 50.2080138 21.3442697 43.059666 26.0495937 43.059666 23.5049597 53.3604242 20.1577574 53.3604242 22.1485517 46.0294833 18.0265129 53.3604242 15.2625023 53.3604242"></polygon>
                            <polygon id="Fill-8" fill="#005D7B" points="35.5492683 53.3520532 38.0586301 43.0596146 41.2334595 43.0596146 44.3911825 49.5839833 46.0254061 43.0596146 49.2513834 43.0596146 46.6646221 53.3520532 43.4423372 53.3520532 40.2606839 46.8330284 38.6016419 53.3520532"></polygon>
                            <polygon id="Fill-9" fill="#CD242A" points="31.4669014 51.8421642 28.3345109 51.8421642 27.9590577 53.3574064 31.0838454 53.3574064"></polygon>
                            <polygon id="Fill-10" fill="#005D7B" points="27.2672823 43.0596645 26.6054447 45.8917268 29.8126953 45.8917268 28.4791115 51.2741876 31.6065166 51.2741876 32.9645292 45.8917268 36.2033597 45.8917268 36.9234806 43.0596645"></polygon>
                        </g>
                        <path d="M0.5,36.5 L71.5,36.5" id="Line" stroke="#FFFFFF" stroke-width="1.3" stroke-linecap="square"></path>
                        <g id="Group-26" stroke="none" stroke-width="1" fill-rule="evenodd" transform="translate(18.000000, 13.000000)">
                            <path d="M7.2973022,8.52117265 C7.2973022,9.05348365 7.1933515,9.53293673 6.98578539,9.9597571 C6.7780364,10.3863523 6.49242725,10.7483952 6.12909511,11.0460145 C5.76559534,11.3434408 5.34089251,11.5744488 4.85518476,11.7388617 C4.36930937,11.9032745 3.84830623,11.9854729 3.29202295,11.9854729 C2.20169126,11.9854729 1.38203371,11.7172102 0.833217929,11.1810547 C0.284219274,10.6447223 0.00990282385,9.87551582 0.00990282385,8.87346756 C0.00990282385,8.58392332 0.054403048,8.16702788 0.143418736,7.62279732 C0.232419184,7.07875979 0.428860242,6.3800252 0.733077185,5.52660965 L2.06817535,5.93763378 C1.98647476,6.28992869 1.91972443,6.60114048 1.8679091,6.871237 C1.81594137,7.14133351 1.77508346,7.37618606 1.74553348,7.57582681 C1.71580063,7.77548365 1.69720807,7.94777855 1.6899082,8.09255067 C1.68242546,8.23749973 1.67878315,8.36079732 1.67878315,8.46245952 C1.67878315,8.64245952 1.70833312,8.80687239 1.76778359,8.95568204 C1.82706643,9.10431475 1.92528696,9.23348365 2.06261282,9.34322091 C2.19977104,9.45276515 2.37778718,9.53882413 2.59666123,9.6015748 C2.8153524,9.66414853 3.08427396,9.69551582 3.40327351,9.69551582 C3.78155589,9.69551582 4.11532281,9.66212172 4.40460475,9.59570349 C4.69387145,9.52909223 4.93671771,9.44486702 5.13334164,9.34322091 C5.3297827,9.24136568 5.47997095,9.1278 5.58393689,9.00266863 C5.68771995,8.87734424 5.73968767,8.75605737 5.73968767,8.63861501 L5.57281183,0.183376408 L7.2973022,0.00720482574 L7.2973022,5.11558552 C7.2973022,5.36623432 7.32320986,5.57174638 7.37517759,5.73210563 C7.42699292,5.89267399 7.50313097,6.01799839 7.60327172,6.10791796 C7.70339722,6.19799839 7.82022555,6.26057212 7.95372622,6.2958 C8.08722689,6.33104397 8.23916773,6.34864182 8.409884,6.34864182 L8.409884,8.63861501 C8.15765002,8.63861501 7.94069619,8.60740858 7.7590225,8.54465791 C7.57718117,8.48208418 7.42335061,8.37640054 7.2973022,8.22759088 L7.2973022,8.52117265 Z" id="Fill-12" fill="#FFFFFE"></path>
                            <path d="M12.1369515,8.6386118 C11.7141689,8.6386118 11.3821393,8.55844021 11.141198,8.39787185 C10.9000739,8.23749651 10.6942451,8.02410241 10.5237117,7.7578504 C10.3307453,8.05546971 10.0859788,8.27658499 9.78939704,8.4213571 C9.49266284,8.56632225 9.10691295,8.6386118 8.63233026,8.6386118 L8.4098139,8.6386118 C8.32826571,8.6386118 8.26153061,8.53493887 8.20953241,8.3274 C8.15774756,8.12007024 8.13167225,7.85180751 8.13167225,7.52299786 C8.13167225,7.17068686 8.15774756,6.88699786 8.20953241,6.67159303 C8.26153061,6.45634906 8.32826571,6.34865469 8.4098139,6.34865469 L8.63233026,6.34865469 C8.89934684,6.34865469 9.11438046,6.32129276 9.27761398,6.26644021 C9.44067987,6.21176461 9.57053823,6.11195228 9.66702143,5.96698713 C9.76333698,5.82221501 9.82834998,5.62056354 9.86172515,5.36219357 C9.89510031,5.10383968 9.9117879,4.76732493 9.9117879,4.35226327 L11.4137771,4.35226327 L11.4137771,4.73980214 L11.4137771,5.16844021 C11.4137771,5.31338928 11.4118569,5.45229008 11.4082146,5.58533566 C11.4043894,5.71854209 11.3988269,5.83598445 11.3915118,5.93763056 C11.4878273,6.11780751 11.6102182,6.23121233 11.7586691,6.27818284 C11.9069524,6.32516944 12.0515934,6.34865469 12.1925768,6.34865469 C12.3483428,6.34865469 12.4780183,6.31928204 12.5819842,6.2605689 C12.6857673,6.20185576 12.7711254,6.09615603 12.8378758,5.94350188 C12.9046261,5.79083164 12.9527839,5.58734638 12.9825015,5.332837 C13.0120667,5.07853673 13.0270169,4.75154477 13.0270169,4.35226327 L14.5289909,4.35226327 L14.5289909,4.75154477 L14.5289909,5.19779678 C14.5289909,5.34660643 14.527086,5.49137855 14.5234284,5.63229008 C14.5196032,5.77321769 14.5140407,5.89469759 14.5067408,5.9963437 C14.6327892,6.14515335 14.7626476,6.24112118 14.8961483,6.28405416 C15.0296489,6.32718016 15.1668072,6.34865469 15.3078058,6.34865469 C15.4413065,6.34865469 15.5506673,6.32516944 15.6360102,6.27818284 C15.7211855,6.23121233 15.7879511,6.1314 15.8362765,5.97872976 C15.8844342,5.82605952 15.9197144,5.60293351 15.9419797,5.30935174 C15.9642299,5.01576997 15.9753549,4.61851528 15.9753549,4.11741072 L17.4773289,4.11741072 L17.4773289,5.38567882 C17.4773289,5.75376997 17.5532993,6.00625255 17.7054078,6.14312654 C17.8573486,6.28020965 18.1151451,6.34865469 18.4786449,6.34865469 L18.4786449,8.6386118 C18.3228941,8.6386118 18.1615656,8.62889598 17.9946897,8.60925523 C17.8277987,8.58980751 17.6645499,8.54869223 17.5051568,8.48595764 C17.3455656,8.42336783 17.1953621,8.3332874 17.0545615,8.21584504 C16.9135629,8.09841877 16.7948296,7.94574853 16.6985293,7.7578504 C16.5575459,7.99273512 16.3647471,8.1982311 16.1199806,8.3743866 C15.8752142,8.55052601 15.5859475,8.6386118 15.2521805,8.6386118 C15.1259645,8.6386118 14.9924638,8.62300858 14.8516481,8.59164129 C14.7106646,8.56045094 14.569666,8.51145362 14.4288654,8.44484236 C14.287882,8.37842413 14.1543661,8.29419893 14.0283329,8.19235979 C13.9021321,8.09069759 13.7908663,7.96537319 13.694566,7.81656354 C13.4720497,8.16887453 13.227268,8.39402735 12.9602514,8.49181287 C12.6932348,8.58980751 12.4187507,8.6386118 12.1369515,8.6386118" id="Fill-14" fill="#FFFFFE"></path>
                            <path d="M21.3157034,1.18155121 L21.3157034,1.3577067 L20.3143874,2.41460751 L20.1475115,2.41460751 L19.1461803,1.3577067 L19.1461803,1.18155121 L20.1475115,0.124650402 L20.3143874,0.124650402 L21.3157034,1.18155121 Z M19.8137294,5.93762091 C19.8137294,5.78900429 19.7970418,5.52661287 19.7636666,5.15081662 C19.7302914,4.77503646 19.6727459,4.23482735 19.591213,3.53023753 L21.2600781,3.23665576 C21.2896281,3.45592118 21.3174559,3.68877909 21.3435312,3.93539035 C21.3694237,4.18198552 21.393594,4.41886488 21.4158289,4.64585147 C21.4380942,4.87301501 21.454797,5.08034477 21.4658916,5.2682429 C21.4770319,5.4561571 21.4825944,5.60110617 21.4825944,5.70276836 C21.4825944,6.24296139 21.4083614,6.70095603 21.2600781,7.07673619 C21.1116272,7.45251635 20.9096236,7.75600697 20.6537168,7.98685416 C20.3978253,8.2178622 20.1029961,8.38428579 19.7692291,8.48594799 C19.4354622,8.58777105 19.0794299,8.63861823 18.7011476,8.63861823 L18.4786312,8.63861823 C18.3970983,8.63861823 18.3303479,8.53492922 18.2783649,8.32740643 C18.2265649,8.12006059 18.2004896,7.85179786 18.2004896,7.5229882 C18.2004896,7.1706933 18.2265649,6.88700429 18.2783649,6.67158338 C18.3303479,6.4563555 18.3970983,6.34864504 18.4786312,6.34864504 L18.7567728,6.34864504 C18.9792892,6.34864504 19.1590427,6.33506863 19.2963838,6.30754584 C19.433542,6.2802 19.5411502,6.24699893 19.6190256,6.20771743 C19.6969163,6.16864504 19.7487164,6.12551903 19.7747917,6.07854853 C19.8006993,6.03157802 19.8137294,5.98459142 19.8137294,5.93762091 L19.8137294,5.93762091 Z" id="Fill-16" fill="#FFFFFE"></path>
                            <polygon id="Fill-18" fill="#FFFFFE" points="24.0414549 0.00720965147 24.0414549 8.57989062 22.4838403 8.69733298 22.3169645 0.183365147"></polygon>
                            <path d="M27.8185592,8.54465791 C27.6442159,8.48208418 27.4903548,8.37255603 27.3568389,8.21584826 C27.2751383,9.35880804 26.9099012,10.2258161 26.2609599,10.8170172 C25.6118358,11.4080413 24.7236753,11.719237 23.5963261,11.7506204 L23.2069339,9.81295818 C23.6964669,9.69551582 24.0989043,9.57221823 24.4140635,9.44304933 C24.7292378,9.31384826 24.981487,9.18266863 25.1706282,9.04963914 C25.3597542,8.91641662 25.4932701,8.78541394 25.5711455,8.65622895 C25.6490361,8.52704397 25.6952737,8.40374638 25.7102239,8.28630402 C25.7102239,8.05145147 25.6693813,7.62279732 25.5878483,7.0004059 C25.5061477,6.37801448 25.3800993,5.59322091 25.2095659,4.64584826 L26.8784463,4.17611099 C26.9747466,4.66162842 27.063747,5.04714048 27.1454476,5.33284021 C27.2269958,5.61871689 27.3215588,5.83782145 27.4291518,5.9904756 C27.5365924,6.14312976 27.668371,6.2411244 27.8241217,6.28405737 C27.9798878,6.32716729 28.1838116,6.34864182 28.4360455,6.34864182 L28.4360455,8.63861501 C28.1985942,8.63861501 27.9927502,8.60740858 27.8185592,8.54465791" id="Fill-20" fill="#FFFFFE"></path>
                            <path d="M29.937919,10.6819625 L29.937919,10.5058231 L30.8836097,9.5076193 L31.0505008,9.5076193 L31.9961915,10.5058231 L31.9961915,10.6819625 L31.0505008,11.6801662 L30.8836097,11.6801662 L29.937919,10.6819625 Z M29.7710279,5.93763539 C29.7710279,5.78900268 29.7543403,5.52661126 29.7209651,5.15081501 C29.68759,4.77503485 29.6300445,4.23482574 29.5485115,3.53023592 L31.2173766,3.23665416 C31.2469418,3.45591957 31.2747545,3.68877748 31.3008298,3.93538874 C31.3267374,4.18198391 31.3508925,4.41887936 31.3731426,4.64584987 C31.395408,4.8730134 31.4120803,5.08035925 31.4232054,5.26824129 C31.4343304,5.4561555 31.4399082,5.60110456 31.4399082,5.70276676 C31.4399082,6.24295979 31.3656751,6.70095442 31.2173766,7.07673458 C31.0689257,7.45251475 30.8669221,7.75602145 30.6110306,7.98685255 C30.355139,8.21786059 30.0602946,8.38428418 29.7265277,8.48594638 C29.3927607,8.58778552 29.0367285,8.63861662 28.6584461,8.63861662 L28.4359297,8.63861662 C28.354412,8.63861662 28.2876464,8.53492761 28.2356787,8.32740483 C28.1838634,8.12005898 28.1577881,7.85181233 28.1577881,7.5229866 C28.1577881,7.17069169 28.1838634,6.88700268 28.2356787,6.67158177 C28.2876464,6.45635389 28.354412,6.34864343 28.4359297,6.34864343 L28.7140714,6.34864343 C28.936603,6.34864343 29.1163564,6.33508311 29.2536823,6.30754424 C29.3908558,6.28019839 29.4984488,6.24699732 29.5763242,6.2077319 C29.6542148,6.16864343 29.7060149,6.12551743 29.7320902,6.07854692 C29.7579826,6.03157641 29.7710279,5.98458981 29.7710279,5.93763539 L29.7710279,5.93763539 Z M27.8796464,10.6819625 L27.8796464,10.5058231 L28.8253372,9.5076193 L28.992213,9.5076193 L29.937919,10.5058231 L29.937919,10.6819625 L28.992213,11.6801662 L28.8253372,11.6801662 L27.8796464,10.6819625 Z" id="Fill-22" fill="#FFFFFE"></path>
                            <polygon id="Fill-24" fill="#FFFFFE" points="33.998761 0.00720965147 33.998761 8.57989062 32.4411465 8.69733298 32.2742706 0.183365147"></polygon>
                        </g>
                    </g>
                </g>
            </g>
        </g>
    </g>
</svg>