<?xml version="1.0" encoding="UTF-8"?>
<svg width="64px" height="64px" viewBox="0 0 64 64" version="1.1" xmlns="http://www.w3.org/2000/svg" xmlns:xlink="http://www.w3.org/1999/xlink">
    <!-- Generator: Sketch 56.2 (81672) - https://sketch.com -->
    <title>Icons/Services/Food/Enable@3x</title>
    <desc>Created with Sketch.</desc>
    <g id="Icons/Services/Food/Enable" stroke="none" stroke-width="1" fill="none" fill-rule="evenodd">
        <g id="active-food-fa">
            <rect id="Rectangle" x="0.982501818" y="0.914275064" width="62.0610633" height="62.0612066"></rect>
            <g id="Group" transform="translate(10.477136, 10.811106)">
                <g>
                    <g transform="translate(1.371609, 29.254728)" fill="#FF00A7" id="Path">
                        <path d="M27.7373884,3.02581532 C27.7373884,1.8606446 26.7929525,0.915203301 25.6267706,0.915203301 C25.4655009,0.915203301 18.622624,5.75731416 18.4462352,5.75731416 C18.0108069,5.75731416 11.3967314,1.18028972 10.9532396,1.12082166 C5.95589332,0.46062545 7.32567823,0.915203301 2.84338722,0.915203301 C1.67720536,0.915203301 0.73276941,1.8606446 0.73276941,3.02581532 C0.73276941,3.3201318 0.73276941,3.62251174 0.73276941,3.91783616 C0.73276941,5.08300688 1.67720536,6.02744024 2.84338722,6.02744024 C7.88508266,6.02744024 20.5850752,6.02744024 25.6267706,6.02744024 C26.7929525,6.02744024 27.7373884,5.08300688 27.7373884,3.91783616 C27.7373884,3.62251174 27.7373884,3.3201318 27.7373884,3.02581532 Z"></path>
                    </g>
                    <g transform="translate(20.232252, 13.019126)" fill="#FF00A7" fill-rule="nonzero" id="Path">
                        <path d="M0,0.633989952 L0,0.907139836 L2.05518133,1.25890851 L2.71033968,7.90018004 C2.71033968,7.90018004 8.82548687,11.9913807 8.86882812,15.9495342 C8.4727093,17.6216953 7.989908,17.9613688 7.989908,17.9613688 C7.989908,17.9613688 9.33449451,20.6555741 8.22173326,21.6675389 C8.16528885,22.2833861 8.60474891,22.9435823 8.60474891,22.9435823 L8.60474891,26.2858886 C8.60474891,26.2858886 6.88924198,28.1777792 5.35012384,28.2221282 L16.6097759,28.2221282 L18.6337113,1.30224963 L20.4369086,0.907139836 L20.4590832,0.633989952 L0,0.633989952 Z"></path>
                    </g>
                    <g transform="translate(19.447008, 0.066768)" fill="#3F3F3F" fill-rule="nonzero" id="Shape">
                        <path d="M1.7427212,10.7899244 L20.9267655,10.7899244 L20.9267655,12.8451001 L1.7427212,12.8451001 L1.7427212,10.7899244 Z M10.6498509,1.88281913 L12.0196358,1.88281913 L12.0196358,9.42014323 L10.6498509,9.42014323 L10.6498509,1.88281913 Z M1.05833271,14.2158892 L2.47750648,14.2158892 L2.82524437,18.8453261 C2.83431579,18.9662781 2.93813319,19.0559842 3.05807757,19.0469128 L3.99041829,18.9763574 C4.11036266,18.967286 4.20006896,18.862461 4.19099753,18.7425169 L3.85233107,14.2158892 L18.8191715,14.2158892 L16.8657917,40.2518104 L12.236342,40.2518104 C12.1163976,40.2518104 12.0206437,40.347564 12.0206437,40.4665001 L12.0206437,41.4069018 C12.0206437,41.52483 12.1163976,41.6215943 12.236342,41.6215943 L17.5017992,41.6215943 C17.8616324,41.6225995 18.1599814,41.3464258 18.1871957,40.9886095 L20.1929881,14.2158892 L21.6121619,14.2158892 C21.9911458,14.2158892 22.2975583,13.9084696 22.2975583,13.5304946 L22.2975583,10.1045298 C22.2975583,9.72655491 21.9911458,9.4191353 21.6121619,9.4191353 L13.3904286,9.4191353 L13.3904286,1.19742458 C13.3904286,0.819449652 13.0840161,0.512030041 12.7050322,0.512030041 L9.96546239,0.512030041 C9.58647849,0.512030041 9.28006597,0.819449652 9.28006597,1.19742458 L9.28006597,9.4191353 L1.05833271,9.4191353 C0.679348807,9.4191353 0.372936289,9.72655491 0.372936289,10.1045298 L0.372936289,13.5304946 C0.372936289,13.9084696 0.679348807,14.2158892 1.05833271,14.2158892 L1.05833271,14.2158892 Z"></path>
                    </g>
                    <g transform="translate(0.475368, 19.228744)" fill="#3F3F3F" fill-rule="nonzero" id="Shape">
                        <path d="M28.2222056,13.9225806 C28.0458168,14.9002758 27.1931031,15.6108686 26.2002862,15.6088571 L21.4549239,15.6088571 L26.9189445,11.6345724 C27.8512852,11.9813014 28.3996023,12.9448855 28.2222056,13.9225806 L28.2222056,13.9225806 Z M28.2554675,19.0338096 C28.2554675,20.1697503 27.335222,21.0899933 26.2002862,21.0899933 L4.27465622,21.0899933 C3.13972038,21.0899933 2.21947488,20.1697503 2.21947488,19.0338096 L2.21947488,16.9786339 L28.2554675,16.9786339 L28.2554675,19.0338096 Z M4.27465622,11.4974935 L10.9209856,11.4974935 L17.0875376,15.6088528 L4.27465622,15.6088528 C3.13972038,15.6088528 2.21947488,14.6876019 2.21947488,13.5526691 C2.21947488,12.4177364 3.13972038,11.4974935 4.27465622,11.4974935 L4.27465622,11.4974935 Z M24.7780886,11.4974935 L19.3312029,15.4586707 L13.3874048,11.4974935 L24.7780886,11.4974935 Z M11.1266046,1.90499366 L19.3483378,1.90499366 C23.9999621,1.91104125 27.8653963,5.49021187 28.2292612,10.1267044 L2.24568122,10.1267044 C2.60853815,5.49021187 6.47498032,1.91104125 11.1266046,1.90499366 L11.1266046,1.90499366 Z M28.9408639,15.6088528 L28.9227211,15.6088528 C29.8601015,14.3983251 29.8601015,12.7070132 28.9227211,11.4974935 L28.9408639,11.4974935 C29.3188399,11.4974935 29.6262611,11.1900738 29.6262611,10.8120989 C29.6272683,8.10378253 28.5548245,5.50432294 26.6447859,3.58521822 C25.8192864,2.83128422 25.1873106,2.36662704 25.1873106,2.36662704 C23.4748275,1.17424212 21.436781,0.53420457 19.3483378,0.535211315 L11.1266046,0.535211315 C5.4529333,0.541260102 0.855737592,5.13945114 0.849689976,10.8120989 C0.849689976,11.1910818 1.15509456,11.4974935 1.53407846,11.4974935 L1.55222131,11.4974935 C0.614840908,12.7070132 0.614840908,14.3983251 1.55222131,15.6088528 L1.53407846,15.6088528 C1.15509456,15.6088528 0.849689976,15.9152645 0.849689976,16.2942473 L0.849689976,19.0338096 C0.851705848,20.9257001 2.38376844,22.4577585 4.27465622,22.4597744 L26.2002862,22.4597744 C28.091174,22.4577585 29.6242445,20.9257001 29.6262611,19.0338096 L29.6262611,16.2942473 C29.6262611,15.9152645 29.3188399,15.6088528 28.9408639,15.6088528 L28.9408639,15.6088528 Z"></path>
                    </g>
                    <g transform="translate(2.687942, 20.284244)" fill="#FFFFFF" fill-rule="nonzero" id="Path">
                        <path d="M17.1349106,0.849687646 L8.9131773,0.849687646 C4.26155305,0.854727312 0.395110879,4.43490586 0.0312460134,9.07139836 L26.0158339,9.07139836 C25.651969,4.43490586 21.7855269,0.854727312 17.1349106,0.849687646"></path>
                    </g>
                    <g transform="translate(2.517653, 35.240180)" fill="#FFFFFF" fill-rule="nonzero" id="Path">
                        <path d="M26.2063338,3.02279152 L26.2063338,0.967615825 L0.17034117,0.967615825 L0.17034117,3.02279152 C0.17034117,4.15772425 1.09058666,5.07897515 2.2255225,5.07897515 L24.1511525,5.07897515 C25.2860883,5.07897515 26.2063338,4.15772425 26.2063338,3.02279152"></path>
                    </g>
                </g>
            </g>
        </g>
    </g>
</svg>