<?xml version="1.0" encoding="UTF-8"?>
<svg width="64px" height="64px" viewBox="0 0 64 64" version="1.1" xmlns="http://www.w3.org/2000/svg" xmlns:xlink="http://www.w3.org/1999/xlink">
    <!-- Generator: Sketch 56.2 (81672) - https://sketch.com -->
    <title>Icons/Services/Flight/Enable</title>
    <desc>Created with Sketch.</desc>
    <g id="Icons/Services/Flight/Enable" stroke="none" stroke-width="1" fill="none" fill-rule="evenodd">
        <g id="active-flight-fa">
            <rect id="Rectangle" x="0.426540308" y="0.914275064" width="63.0158489" height="62.0612066"></rect>
            <g id="Group" transform="translate(11.520405, 10.036219)" fill-rule="nonzero">
                <g transform="translate(0.618194, 0.658342)" fill="#3F3F3F" id="Shape">
                    <path d="M37.867377,25.2759396 L37.867377,28.572889 L37.7670796,28.542651 L24.4960991,24.4333075 L24.4428801,24.4161727 L24.4428801,24.3607363 L24.4428801,14.4819835 L24.4428801,14.3217221 L24.5677401,14.4235234 L37.839744,25.2174795 L37.867377,25.240662 L37.867377,25.2759396 Z M27.4958095,15.0121564 C27.5203721,14.5747134 27.887788,14.2310082 28.3329855,14.2310082 C28.7955816,14.2310082 29.1722085,14.6029355 29.1722085,15.0585213 L29.1722085,16.4151993 L29.0473485,16.3133981 L27.5234424,15.0746482 L27.4937626,15.0504578 L27.4958095,15.0121564 Z M33.5832462,19.9671557 C33.5904103,19.5186255 33.9660137,19.1527457 34.4224691,19.1527457 C34.8850652,19.1527457 35.2616921,19.5236651 35.2616921,19.9792509 L35.2616921,21.3691907 L35.1368321,21.2663816 L33.6119026,20.0266238 L33.5832462,20.0034413 L33.5832462,19.9671557 Z M29.0708877,38.7761963 L29.0934034,38.7983708 L29.0934034,40.3727624 L28.9828716,40.318334 L23.4266016,37.6059859 L23.3611013,37.5747399 L23.3897577,37.5092243 C23.8380255,36.4629897 24.1481287,35.3643425 24.3098326,34.2435209 L24.3313249,34.0943468 L24.4398098,34.2011877 L29.0708877,38.7761963 Z M23.0704436,24.9060282 L23.0704436,32.4141222 C23.0704436,34.9732645 22.197447,37.5082164 20.6141813,39.5543206 L20.47704,39.7317169 L20.47704,39.5079557 L20.47704,32.2226149 C20.47704,31.8496796 20.1689837,31.5462918 19.79031,31.5462918 C19.4116362,31.5462918 19.10358,31.8496796 19.10358,32.2226149 L19.10358,39.7317169 L18.9664387,39.5543206 C17.3821495,37.5082164 16.5101764,34.9732645 16.5101764,32.4141222 L16.5101764,24.9150996 L16.5101764,8.62689984 C16.5101764,6.01836885 17.6881588,3.57614682 19.7422082,1.92515232 L19.79031,1.88685086 L19.8384118,1.92515232 C21.8924611,3.57513889 23.0704436,6.01836885 23.0704436,8.62689984 L23.0704436,24.9060282 Z M16.1540183,37.6059859 L10.5967249,40.318334 L10.4872165,40.3727624 L10.4872165,40.2508025 L10.4872165,38.8286088 L10.4872165,38.7983708 L10.5097323,38.7761963 L15.1408101,34.2011877 L15.2482716,34.0943468 L15.2707874,34.2435209 C15.4324913,35.3643425 15.7425944,36.4629897 16.1898388,37.5092243 L16.2184952,37.5747399 L16.1540183,37.6059859 Z M12.0561541,15.0746482 L10.5332715,16.3133981 L10.4084115,16.4151993 L10.4084115,16.2559459 L10.4084115,15.0585213 C10.4084115,14.6029355 10.7850383,14.2310082 11.2476344,14.2310082 C11.692832,14.2310082 12.0602479,14.5747134 12.0848105,15.0121564 L12.0868574,15.0504578 L12.0561541,15.0746482 Z M5.96871737,20.0266238 L4.44378786,21.2663816 L4.31892786,21.3691907 L4.31892786,21.2079214 L4.31892786,19.9792509 C4.31892786,19.5236651 4.6945313,19.1527457 5.15712737,19.1527457 C5.61358278,19.1527457 5.99020966,19.5186255 5.99635032,19.9671557 L5.99635032,20.0034413 L5.96871737,20.0266238 Z M36.6617616,22.5071473 L36.6341286,22.4839648 L36.6341286,22.4486871 L36.6341286,19.9792509 C36.6341286,18.7777946 35.6424127,17.8011074 34.4224691,17.8011074 C33.5975744,17.8011074 32.8463675,18.2496376 32.4625765,18.9733336 L32.4185685,19.0559842 L32.3448806,18.9965161 L30.572278,17.5541638 L30.544645,17.5319892 L30.544645,17.4957036 L30.544645,15.0585213 C30.544645,13.857065 29.5519057,12.8803777 28.3329855,12.8803777 C27.5183252,12.8803777 26.7701886,13.3208445 26.3833273,14.0304295 L26.3393193,14.1110641 L26.2676783,14.052604 L24.4705131,12.5921089 L24.4428801,12.5689264 L24.4428801,12.5336487 L24.4428801,8.62689984 C24.4428801,5.40352962 22.8524503,2.36158737 20.1894526,0.488847578 C20.0717567,0.40619706 19.9346154,0.362855934 19.79031,0.362855934 C19.6460046,0.362855934 19.5088633,0.40619706 19.3911673,0.488847578 C16.7281696,2.36158737 15.1377398,5.40352962 15.1377398,8.62689984 L15.1377398,12.5689264 L15.1101069,12.5921089 L13.3129416,14.052604 L13.2413006,14.1110641 L13.1972926,14.0304295 C12.8104313,13.3208445 12.0622947,12.8803777 11.2476344,12.8803777 C10.0287142,12.8803777 9.0359749,13.857065 9.0359749,15.0585213 L9.0359749,17.5319892 L9.00834195,17.5541638 L7.23471589,18.9965161 L7.16205146,19.0559842 L7.11804343,18.9733336 C6.73425245,18.2506456 5.98304557,17.8011074 5.15712737,17.8011074 C3.93820721,17.8011074 2.94649131,18.7788025 2.94649131,19.9792509 L2.94649131,22.4849727 L2.91885836,22.5071473 L0.58950295,24.4010537 C0.431892786,24.5300691 0.340806393,24.7195605 0.340806393,24.9221551 L0.340806393,29.4951478 C0.340806393,29.7088296 0.446220983,29.9124321 0.620206229,30.0394317 C0.739949015,30.125106 0.879137212,30.170463 1.02753639,30.170463 C1.09713049,30.170463 1.16672459,30.1603837 1.23222492,30.1392171 L12.4982813,26.6386652 C12.67329,26.5842369 12.8155485,26.4663087 12.9004942,26.3060473 C12.98544,26.1457859 13.0018151,25.96335 12.9465492,25.7909935 C12.8575097,25.5077643 12.5944849,25.3172649 12.2935928,25.3172649 C12.2229752,25.3172649 12.1533811,25.3283522 12.0868574,25.3485108 L1.81251688,28.542651 L1.71324295,28.572889 L1.71324295,28.4710877 L1.71324295,25.2759396 L1.71324295,25.240662 L1.7408759,25.2174795 L15.0128798,14.4235234 L15.1377398,14.3217221 L15.1377398,24.4161727 L15.0834974,24.4333075 L10.8085775,25.7577317 C10.6335688,25.8111521 10.4902869,25.9290803 10.4053411,26.0893417 C10.3203954,26.2496031 10.3040203,26.432039 10.3592862,26.6043955 C10.4493492,26.8876247 10.7123739,27.0781241 11.0142895,27.0781241 C11.0828601,27.0781241 11.1524542,27.0670368 11.2200015,27.0468782 L15.0384659,25.8635647 L15.1377398,25.8333267 L15.1377398,32.2891385 L15.1162475,32.311313 L9.31537474,38.041413 C9.18642097,38.1694205 9.11477999,38.3377453 9.11477999,38.5181654 L9.11477999,41.4623381 C9.11477999,41.6971865 9.23554622,41.9118763 9.4392113,42.0358521 C9.54769622,42.1023757 9.67255622,42.1376533 9.80048654,42.1376533 C9.90590113,42.1376533 10.0113157,42.1134629 10.1054724,42.067098 L16.7578495,38.8205453 L16.8233498,38.7882915 L16.8581469,38.8507833 C17.5192908,40.0078906 18.3472559,41.0511014 19.3195264,41.9532015 C19.4474567,42.0721377 19.6142778,42.1376533 19.79031,42.1376533 C19.9663421,42.1376533 20.1331632,42.0721377 20.2610936,41.9532015 C21.2323406,41.0511014 22.0613291,40.0078906 22.7214496,38.8507833 L22.7572701,38.7882915 L22.8227705,38.8205453 L29.4751475,42.067098 C29.5693042,42.1134629 29.6747188,42.1376533 29.7801334,42.1376533 C29.9080637,42.1376533 30.0329237,42.1023757 30.1414086,42.0358521 C30.3440503,41.9118763 30.46584,41.6971865 30.46584,41.4623381 L30.46584,38.5181654 C30.46584,38.3377453 30.394199,38.1694205 30.2652452,38.041413 L24.4643724,32.311313 L24.4428801,32.2891385 L24.4428801,32.2578926 L24.4428801,25.9361358 L24.4428801,25.8333267 L24.5411306,25.8635647 L38.3473716,30.1392171 C38.4138954,30.1603837 38.4834895,30.170463 38.5530836,30.170463 C38.6994358,30.170463 38.8406709,30.125106 38.9593903,30.0394317 C39.134399,29.9124321 39.2398135,29.7088296 39.2398135,29.4951478 L39.2398135,24.9221551 C39.2398135,24.7195605 39.1487272,24.5300691 38.991117,24.4010537 L36.6617616,22.5071473 Z"></path>
                </g>
                <g transform="translate(33.716535, 18.904442)" fill="#FFFFFF" id="Path">
                    <path d="M2.04688524,3.02077565 L2.17174524,3.1225769 L2.17174524,2.96231553 L2.17174524,1.73364502 C2.17174524,1.27805924 1.79511836,0.906131903 1.33252229,0.906131903 C0.876066884,0.906131903 0.500463442,1.27201164 0.493299344,1.72054189 L0.493299344,1.75783542 L0.521955737,1.78101788 L2.04688524,3.02077565 Z"></path>
                </g>
                <g transform="translate(10.844059, 14.050201)" fill="#FFFFFF" id="Path">
                    <path d="M1.02344262,0.839608315 C0.560846557,0.839608315 0.184219672,1.21052771 0.184219672,1.6661135 L0.184219672,3.02379945 L0.309079672,2.9219982 L1.83196229,1.68224043 L1.86164213,1.65805003 L1.85959524,1.62075651 C1.83605606,1.18230559 1.46864016,0.839608315 1.02344262,0.839608315"></path>
                </g>
                <g transform="translate(4.756098, 19.003467)" fill="#FFFFFF" id="Path">
                    <path d="M1.02344262,0.807354454 C0.560846557,0.807354454 0.185243114,1.17827385 0.185243114,1.63385964 L0.185243114,3.02379945 L0.310103114,2.9219982 L1.83503262,1.6812325 L1.86266557,1.65805003 L1.86266557,1.62176444 C1.85550147,1.17323419 1.47989803,0.807354454 1.02344262,0.807354454"></path>
                </g>
                <g transform="translate(27.615164, 13.983653)" fill="#FFFFFF" id="Path">
                    <path d="M2.04688524,2.98852179 L2.17174524,3.09032304 L2.17174524,2.93006167 L2.17174524,1.73263709 C2.17174524,1.2770513 1.79511836,0.906131903 1.33252229,0.906131903 C0.887324753,0.906131903 0.519908852,1.24882917 0.495346229,1.68728009 L0.493299344,1.72558155 L0.52297918,1.74977195 L2.04688524,2.98852179 Z"></path>
                </g>
                <g transform="translate(1.428091, 14.097558)" fill="#FF201B" id="Path">
                    <path d="M14.3281967,10.9773999 L14.3281967,10.9219636 L14.3281967,1.04321081 L14.3281967,0.88294944 L14.2033367,0.984750689 L0.931332786,11.7787068 L0.903699835,11.8008813 L0.903699835,15.1341163 L1.00297377,15.1038783 L11.2773142,11.9097381 C11.3029003,11.9016746 11.3295098,11.9026826 11.3571428,11.8976429 L14.2739542,10.9935269 L14.3281967,10.9773999 Z"></path>
                </g>
                <g transform="translate(17.137477, 2.152699)" fill="#FFFFFF" id="Path">
                    <path d="M0,23.4203347 L0,30.9193573 C0,33.4784996 0.872996556,36.0144594 2.45626229,38.0595558 L2.5934036,38.236952 L2.5934036,38.0141988 L2.5934036,30.72785 C2.5934036,30.3549148 2.90145983,30.0525348 3.2801336,30.0525348 C3.65880737,30.0525348 3.9668636,30.3549148 3.9668636,30.72785 L3.9668636,38.236952 L4.10400491,38.0595558 C5.68829409,36.0144594 6.5602672,33.4784996 6.5602672,30.9193573 L6.5602672,23.4122712 L6.5602672,7.13213498 C6.5602672,4.52461192 5.38228475,2.08138196 3.3282354,0.431395389 L3.2801336,0.392085996 L3.2320318,0.431395389 C1.17798246,2.08138196 0,4.52461192 0,7.13213498 L0,23.4203347 Z"></path>
                </g>
                <g transform="translate(24.063507, 14.002575)" fill="#FF201B" id="Path">
                    <polygon points="14.3281967 15.198624 14.4284941 15.228862 14.4284941 15.1270607 14.4284941 11.9319126 14.4284941 11.896635 14.3998377 11.8734525 1.12885721 1.0794964 1.00297377 0.977695157 1.00297377 11.0721457 1.05619279 11.0882726"></polygon>
                </g>
                <g transform="translate(23.467755, 33.798463)" fill="#FF201B" id="Path">
                    <path d="M6.14065573,7.1784999 L6.25016409,7.23292829 L6.25016409,7.11096838 L6.25016409,5.6887747 L6.25016409,5.65752878 L6.22867179,5.63535425 L1.59759393,1.06135361 L1.48910901,0.953504761 L1.46761672,1.1036868 C1.30488934,2.22450846 0.995809671,3.3231556 0.547541802,4.36939021 L0.518885409,4.43490586 L0.583362294,4.46615179 L6.14065573,7.1784999 Z"></path>
                </g>
                <g transform="translate(10.773171, 33.826329)" fill="#FF201B" id="Path">
                    <path d="M5.11721311,1.07546467 L5.09572081,0.926290566 L4.98723589,1.03313148 L0.356158032,5.60814005 L0.333642295,5.63031458 L0.333642295,7.20470616 L0.444174098,7.15027777 L6.00044409,4.43792966 L6.06492097,4.40668374 L6.03626458,4.34116808 C5.58902016,3.29493347 5.27891704,2.19628634 5.11721311,1.07546467"></path>
                </g>
            </g>
        </g>
    </g>
</svg>