<?xml version="1.0" encoding="UTF-8"?>
<svg width="64px" height="64px" viewBox="0 0 64 64" version="1.1" xmlns="http://www.w3.org/2000/svg" xmlns:xlink="http://www.w3.org/1999/xlink">
    <!-- Generator: Sketch 56.2 (81672) - https://sketch.com -->
    <title>Icons/Services/Car/Enable@4x</title>
    <desc>Created with Sketch.</desc>
    <g id="Icons/Services/Car/Enable" stroke="none" stroke-width="1" fill="none" fill-rule="evenodd">
        <g id="icn-cab-active_2">
            <rect id="Rectangle" x="0.982501818" y="0.969450822" width="62.0610633" height="62.0612066"></rect>
            <g id="Group" transform="translate(32.000000, 37.444444) scale(-1, 1) translate(-32.000000, -37.444444) translate(4.000000, 25.000000)">
                <g transform="translate(2.178076, 8.898678)" fill="#FFFFFF" fill-rule="nonzero" id="Path">
                    <path d="M3.13580062,2.07171326 L3.13580062,0.198600162 L1.19160424,0.198600162 L1.06617221,0.375249779 C0.575942048,1.07035034 0.31776113,1.88565627 0.31776113,2.73650117 L0.31776113,3.96364112 L1.24491285,3.96364112 C2.28704392,3.96364112 3.13580062,3.11488675 3.13580062,2.07171326"></path>
                </g>
                <g transform="translate(8.336672, 14.895068)" fill="#FFFFFF" fill-rule="nonzero" id="Shape">
                    <path d="M4.1810675,6.10538707 C3.07412988,6.10538707 2.1741551,5.20541476 2.1741551,4.09848018 C2.1741551,2.99154559 3.07412988,2.09157328 4.1810675,2.09157328 C5.28800512,2.09157328 6.18902517,2.99154559 6.18902517,4.09848018 C6.18902517,5.20541476 5.28800512,6.10538707 4.1810675,6.10538707 M4.1810675,0.156789601 C2.00795767,0.156789601 0.239366114,1.92433104 0.239366114,4.09848018 C0.239366114,6.27158405 2.00795767,8.03912549 4.1810675,8.03912549 C6.35417733,8.03912549 8.12276888,6.27158405 8.12276888,4.09848018 C8.12276888,1.92433104 6.35417733,0.156789601 4.1810675,0.156789601"></path>
                </g>
                <g transform="translate(4.946025, 2.473542)" fill="#FFFFFF" fill-rule="nonzero" id="Path">
                    <path d="M12.5432025,0.501726724 L11.2460263,0.936556552 C11.0045697,1.01704188 10.7662488,1.10484406 10.5247922,1.19891782 L0.479777496,5.22632004 L8.91508118,5.22632004 L12.5432025,0.501726724 Z"></path>
                </g>
                <g transform="translate(27.163660, 2.148513)" fill="#FFFFFF" fill-rule="nonzero" id="Path">
                    <path d="M5.22633437,1.99540899 C3.80163562,1.27104103 2.26718385,0.824713303 0.666880266,0.668968965 L0.208008108,0.625067877 L0.208008108,5.55139715 L12.2181245,5.55139715 L5.22633437,1.99540899 Z"></path>
                </g>
                <g transform="translate(42.725735, 17.892149)" fill="#3F3F3F" id="Oval">
                    <ellipse cx="1.04631214" cy="1.100663" rx="1" ry="1"></ellipse>
                </g>
                <g transform="translate(15.514109, 2.756730)" fill="#FFFFFF" fill-rule="nonzero" id="Path">
                    <path d="M10.4526687,4.9430535 L10.4526687,0 L4.70265567,0 C4.49255703,0 4.28350365,0.00522632004 4.07549555,0.0156789601 L3.88212117,0.0250863362 L0.105571954,4.9430535 L10.4526687,4.9430535 Z"></path>
                </g>
                <g transform="translate(48.286132, 9.602735)" fill="#FFFFFF" fill-rule="nonzero" id="Path">
                    <path d="M1.04526687,0.534129908 L0.375250808,0.409743491 L0.56862518,1.0630335 C1.07871541,2.79190017 2.62780092,4.06921279 4.42043361,4.23959082 L5.10194762,4.30544245 L4.84794777,3.66887667 C4.2030181,2.04871746 2.74591608,0.847709111 1.04526687,0.534129908"></path>
                </g>
                <g transform="translate(2.478830, 8.883770)" fill="#00E361" fill-rule="nonzero" id="Shape">
                    <path d="M29.2674725,5.57857401 L21.8586209,5.57857401 C21.4729174,5.57857401 21.1593373,5.26499481 21.1593373,4.88033766 C21.1593373,4.49358997 21.4729174,4.18105603 21.8586209,4.18105603 L29.2674725,4.18105603 C29.653176,4.18105603 29.966756,4.49358997 29.966756,4.88033766 C29.966756,5.26499481 29.653176,5.57857401 29.2674725,5.57857401 M44.8346321,1.26372419 L44.7938667,0.94909972 L39.7828573,0.218460178 L4.22810451,0.214279122 L4.22810451,2.08634696 C4.22810451,3.90092528 2.75323295,5.3757928 0.938649654,5.3757928 L0.0114979356,5.3757928 L0.0114979356,9.54535093 L4.70683674,9.54535093 L4.76746222,9.19832328 C5.2096101,6.63220013 7.42244008,4.77058493 10.0272451,4.77058493 C12.6310049,4.77058493 14.8427896,6.63220013 15.2859828,9.19832328 L15.3466083,9.54535093 L35.9686784,9.54535093 L36.0293039,9.19832328 C36.4735423,6.63220013 38.685327,4.77058493 41.2890868,4.77058493 C43.8938919,4.77058493 46.1056766,6.63220013 46.549915,9.19832328 L46.6105405,9.54535093 L51.0037972,9.54535093 L51.0037972,6.38133677 L50.5888262,6.37715572 C47.6756674,6.34997885 45.2015207,4.15178864 44.8346321,1.26372419"></path>
                </g>
                <g transform="translate(39.589935, 14.895068)" fill="#FFFFFF" fill-rule="nonzero" id="Shape">
                    <path d="M4.1810675,6.10538707 C3.07412988,6.10538707 2.1741551,5.20541476 2.1741551,4.09848018 C2.1741551,2.99154559 3.07412988,2.09157328 4.1810675,2.09157328 C5.28905039,2.09157328 6.18902517,2.99154559 6.18902517,4.09848018 C6.18902517,5.20541476 5.28905039,6.10538707 4.1810675,6.10538707 M4.18211277,0.156789601 C2.00900293,0.156789601 0.239366114,1.92433104 0.239366114,4.09848018 C0.239366114,6.27158405 2.00900293,8.03912549 4.18211277,8.03912549 C6.3552226,8.03912549 8.12276888,6.27158405 8.12276888,4.09848018 C8.12276888,1.92433104 6.3552226,0.156789601 4.18211277,0.156789601"></path>
                </g>
                <g transform="translate(0.437162, 0.350553)" fill="#3F3F3F" fill-rule="nonzero" id="Shape">
                    <path d="M52.2633437,13.4922678 C50.4707111,13.3208445 48.9226708,12.0445772 48.4115353,10.3157105 L48.2192062,9.66242049 L48.888177,9.78680691 C50.5888262,10.0993409 52.0459282,11.3013945 52.6908579,12.9215537 L52.9448577,13.5570742 L52.2633437,13.4922678 Z M53.0504297,18.0788863 L48.657173,18.0788863 L48.5965475,17.7318586 C48.1523091,15.1657355 45.9405244,13.303075 43.3357194,13.303075 C40.7319596,13.303075 38.5201749,15.1657355 38.0759365,17.7318586 L38.015311,18.0788863 L17.3932408,18.0788863 L17.3326153,17.7318586 C16.8894222,15.1657355 14.6776375,13.303075 12.0738777,13.303075 C9.46907262,13.303075 7.25624265,15.1657355 6.81409476,17.7318586 L6.75346928,18.0788863 L2.05813048,18.0788863 L2.05813048,13.9093282 L2.98528219,13.9093282 C4.79986549,13.9093282 6.27473705,12.4334154 6.27473705,10.6198823 L6.27473705,8.74676922 L41.8294898,8.75095028 L46.8415445,9.48263509 L46.8812646,9.79725955 C47.2481533,12.685324 49.7223,14.8835142 52.6354588,14.9096458 L53.0504297,14.9138269 L53.0504297,18.0788863 Z M43.3378099,22.5839742 C41.1647001,22.5839742 39.3950632,20.8153875 39.3950632,18.6422836 C39.3950632,16.4691797 41.1647001,14.7016383 43.3378099,14.7016383 C45.5109197,14.7016383 47.278466,16.4691797 47.278466,18.6422836 C47.278466,20.8153875 45.5109197,22.5839742 43.3378099,22.5839742 L43.3378099,22.5839742 Z M12.0728324,22.5839742 C9.89972257,22.5839742 8.13113102,20.8153875 8.13113102,18.6422836 C8.13113102,16.4691797 9.89972257,14.7016383 12.0728324,14.7016383 C14.2459422,14.7016383 16.0145338,16.4691797 16.0145338,18.6422836 C16.0145338,20.8153875 14.2459422,22.5839742 12.0728324,22.5839742 L12.0728324,22.5839742 Z M2.05813048,11.2846702 C2.05813048,10.4338253 2.31631139,9.61747414 2.80654156,8.92341884 L2.93197358,8.74676922 L4.87616997,8.74676922 L4.87616997,10.6198823 C4.87616997,11.6630558 4.02845854,12.5118102 2.98528219,12.5118102 L2.05813048,12.5118102 L2.05813048,11.2846702 Z M15.0288471,3.32289428 C15.2692585,3.22777526 15.5086246,3.13997308 15.749036,3.05948775 L17.0472575,2.62465793 L13.4191361,7.34925124 L4.98383246,7.34925124 L15.0288471,3.32289428 Z M19.1524249,2.42187671 C19.3593878,2.41142407 19.5694864,2.40619775 19.7795851,2.40619775 L25.5295982,2.40619775 L25.5295982,7.34925124 L15.1814561,7.34925124 L18.9590506,2.43128408 L19.1524249,2.42187671 Z M26.92712,2.42292197 L27.3849469,2.46786832 C28.9852504,2.6225674 30.5197022,3.06889513 31.9454462,3.79326309 L38.9372364,7.34925124 L26.92712,7.34925124 L26.92712,2.42292197 Z M48.9028107,8.37047418 L42.0699012,7.37433758 L42.0082304,7.34297966 L32.5778327,2.54730839 C30.5991425,1.54071915 28.3789957,1.00867977 26.1588488,1.00867977 L19.7795851,1.00867977 C17.9650018,1.00867977 16.1911839,1.3504811 14.5093495,2.02572165 L4.10162722,6.19632504 C2.01109347,7.03567204 0.659563398,9.0321263 0.659563398,11.2846702 L0.659563398,18.7781679 C0.659563398,19.1628251 0.973143461,19.4764043 1.35884694,19.4764043 L6.78796309,19.4764043 L6.8600865,19.8046172 C7.08377361,20.817478 7.59909018,21.7383556 8.34854653,22.4689951 C9.35095746,23.4442264 10.6742653,23.9814921 12.0738777,23.9814921 C13.4724448,23.9814921 14.7947073,23.4442264 15.796073,22.4679499 C16.5465746,21.7394008 17.0608459,20.817478 17.2855783,19.8046172 L17.3577017,19.4764043 L38.05085,19.4764043 L38.1240187,19.8046172 C38.3466606,20.8153875 38.8619771,21.7373103 39.6114335,22.4689951 C40.6148897,23.4442264 41.9381976,23.9814921 43.3367646,23.9814921 C44.7353317,23.9814921 46.0575943,23.4442264 47.0610505,22.4689951 C47.8105069,21.7383556 48.3247782,20.8164327 48.5484653,19.8046172 L48.621634,19.4764043 L53.7497132,19.4764043 C54.1354167,19.4764043 54.4489968,19.1628251 54.4489968,18.7781679 L54.4489968,14.7852594 C54.4489968,13.2288613 53.8887337,11.7226359 52.8695985,10.5456686 C51.8515086,9.36765604 50.4424888,8.59416068 48.9028107,8.37047418 L48.9028107,8.37047418 Z"></path>
                </g>
                <g transform="translate(23.384168, 12.371451)" fill="#3F3F3F" fill-rule="nonzero" id="Path">
                    <path d="M8.362135,0.693010038 L0.95328339,0.693010038 C0.567579913,0.693010038 0.253999851,1.00658924 0.253999851,1.39229166 C0.253999851,1.77799408 0.567579913,2.09052802 0.95328339,2.09052802 L8.362135,2.09052802 C8.74783848,2.09052802 9.06141854,1.77799408 9.06141854,1.39229166 C9.06141854,1.00658924 8.74783848,0.693010038 8.362135,0.693010038"></path>
                </g>
                <g transform="translate(10.427206, 16.958797)" fill="#3F3F3F" fill-rule="nonzero" id="Shape">
                    <path d="M2.09053375,0.0271768642 C0.983596129,0.0271768642 0.08362135,0.92819444 0.08362135,2.03408376 C0.08362135,3.14101835 0.983596129,4.04203592 2.09053375,4.04203592 C3.19747137,4.04203592 4.09849142,3.14101835 4.09849142,2.03408376 C4.09849142,0.92819444 3.19747137,0.0271768642 2.09053375,0.0271768642"></path>
                </g>
                <g transform="translate(41.680469, 16.958797)" fill="#3F3F3F" fill-rule="nonzero" id="Path">
                    <path d="M2.09053375,0.0271768642 C0.983596129,0.0271768642 0.08362135,0.92819444 0.08362135,2.03408376 C0.08362135,3.14101835 0.983596129,4.04203592 2.09053375,4.04203592 C3.19851664,4.04203592 4.09849142,3.14101835 4.09849142,2.03408376 C4.09849142,0.92819444 3.19851664,0.0271768642 2.09053375,0.0271768642"></path>
                </g>
            </g>
        </g>
    </g>
</svg>